<?xml version="1.0" standalone="no"?>
<!DOCTYPE svg PUBLIC "-//W3C//DTD SVG 20010904//EN"
 "http://www.w3.org/TR/2001/REC-SVG-20010904/DTD/svg10.dtd">
<svg version="1.0" xmlns="http://www.w3.org/2000/svg"
 width="240.000000pt" height="62.000000pt" viewBox="0 0 240.000000 62.000000"
 preserveAspectRatio="xMidYMid meet">

    <g transform="translate(0.000000,62.000000) scale(0.100000,-0.100000)"
    fill="#000000" stroke="none">
        <path d="M585 593 c-14 -13 -16 -33 -13 -117 l3 -101 -45 -7 c-53 -8 -342 9
        -384 23 -16 5 -46 9 -67 9 -67 0 -99 -71 -64 -140 17 -33 50 -45 98 -36 123
        24 434 32 454 12 4 -3 6 -49 4 -102 -2 -62 2 -100 10 -110 18 -22 57 -17 75
        11 21 32 10 65 -22 65 -21 0 -24 4 -24 39 0 45 28 101 50 101 8 0 32 -5 53
        -11 26 -7 42 -7 51 0 8 7 248 11 697 13 l684 4 118 31 c111 29 149 43 116 43
        -8 0 -63 10 -124 22 -103 20 -155 21 -800 29 -379 4 -701 9 -715 11 -14 1 -40
        -1 -58 -5 -29 -6 -35 -3 -52 26 -14 21 -20 46 -18 72 3 33 7 40 28 45 32 8 38
        42 11 69 -25 25 -44 26 -66 4z"/>
    </g>
</svg>
