<?xml version="1.0" standalone="no"?>
<!DOCTYPE svg PUBLIC "-//W3C//DTD SVG 20010904//EN"
 "http://www.w3.org/TR/2001/REC-SVG-20010904/DTD/svg10.dtd">
<svg version="1.0" xmlns="http://www.w3.org/2000/svg"
 width="240.000000pt" height="62.000000pt" viewBox="0 0 240.000000 62.000000"
 preserveAspectRatio="xMidYMid meet">

    <g transform="translate(0.000000,62.000000) scale(0.100000,-0.100000)"
    fill="#000000" stroke="none">
        <path d="M379 493 c-1 -5 0 -26 1 -47 l2 -39 -32 26 c-29 25 -39 27 -119 27
        -97 0 -131 -14 -131 -56 0 -29 16 -32 23 -4 7 25 45 40 106 40 67 0 109 -17
        126 -51 8 -15 15 -32 15 -37 0 -6 -65 -9 -152 -8 -151 1 -192 -5 -202 -29 -11
        -29 21 -50 76 -51 29 0 106 -1 171 -2 l119 -2 -3 -77 c-2 -47 0 -78 6 -78 6 0
        11 16 13 35 2 27 10 39 33 52 18 11 32 28 35 46 l6 29 516 6 c285 4 695 7 912
        7 404 0 508 8 450 34 -18 8 -292 12 -948 14 -863 2 -923 4 -928 20 -13 41 -30
        65 -51 73 -18 7 -23 16 -23 44 0 19 -4 35 -10 35 -5 0 -10 -3 -11 -7z"/>
    </g>
</svg>
