<?xml version="1.0" standalone="no"?>
<!DOCTYPE svg PUBLIC "-//W3C//DTD SVG 20010904//EN"
 "http://www.w3.org/TR/2001/REC-SVG-20010904/DTD/svg10.dtd">
<svg version="1.0" xmlns="http://www.w3.org/2000/svg"
 width="240.000000pt" height="62.000000pt" viewBox="0 0 240.000000 62.000000"
 preserveAspectRatio="xMidYMid meet">

    <g transform="translate(0.000000,62.000000) scale(0.100000,-0.100000)"
    fill="#000000" stroke="none">
        <path d="M2007 408 c17 -18 36 -43 42 -55 l12 -23 -829 0 -829 0 -32 40 c-25
        31 -39 40 -63 40 l-31 0 20 -23 c11 -12 23 -29 27 -37 4 -8 -7 2 -24 23 -24
        27 -40 37 -62 37 l-29 0 21 -33 22 -32 -30 34 c-27 32 -82 54 -82 33 0 -5 10
        -22 21 -38 16 -21 12 -19 -15 9 -32 32 -44 37 -82 37 -24 0 -44 -3 -44 -7 0
        -4 18 -25 39 -48 55 -56 55 -75 1 -130 l-44 -45 48 0 c44 0 53 4 83 38 34 36
        34 36 7 2 l-27 -35 28 -3 c23 -3 36 4 63 35 l34 38 -26 -37 -27 -38 30 0 c22
        0 38 10 67 43 33 37 34 38 10 5 -32 -45 -32 -48 -4 -48 12 0 40 18 63 40 l41
        40 828 -2 829 -3 -42 -53 c-23 -28 -37 -52 -31 -52 15 0 383 131 393 140 7 6
        -373 140 -397 140 -6 0 4 -15 21 -32z"/>
    </g>
</svg>
