<?xml version="1.0" standalone="no"?>
<!DOCTYPE svg PUBLIC "-//W3C//DTD SVG 20010904//EN"
 "http://www.w3.org/TR/2001/REC-SVG-20010904/DTD/svg10.dtd">
<svg version="1.0" xmlns="http://www.w3.org/2000/svg"
 width="240.000000pt" height="62.000000pt" viewBox="0 0 240.000000 62.000000"
 preserveAspectRatio="xMidYMid meet">

    <g transform="translate(0.000000,62.000000) scale(0.100000,-0.100000)"
    fill="#000000" stroke="none">
        <path d="M1340 409 l-35 -6 35 -3 35 -2 -34 -9 c-43 -13 -35 -21 10 -10 52 14
        119 20 119 11 0 -10 145 -34 165 -26 24 9 13 29 -21 39 -37 11 -227 15 -274 6z"/>
        <path d="M1843 385 c-37 -36 -40 -37 -125 -19 -39 8 -35 -3 5 -15 23 -7 -19
        -9 -148 -9 -164 0 -177 1 -147 14 51 22 38 24 -29 3 -56 -18 -98 -19 -549 -19
        -269 0 -491 4 -494 8 -5 9 -44 8 -68 -3 -10 -4 -60 -5 -113 -3 -86 3 -95 1
        -95 -15 0 -10 -4 -16 -10 -12 -5 3 -6 13 -3 22 5 13 2 15 -11 10 -10 -4 -26
        -7 -37 -7 -15 0 -19 -7 -19 -33 0 -33 1 -34 55 -44 31 -5 58 -6 61 -1 7 11
        171 10 179 -1 3 -6 15 -7 28 -3 12 4 339 7 727 8 462 1 693 -1 671 -8 -18 -5
        -31 -11 -29 -13 2 -3 20 0 39 5 58 17 83 12 107 -20 37 -50 68 -49 305 10 231
        58 251 64 221 73 -96 30 -422 107 -450 107 -26 0 -44 -8 -71 -35z m-1736 -107
        c-3 -7 -5 -2 -5 12 0 14 2 19 5 13 2 -7 2 -19 0 -25z"/>
        <path d="M1278 393 c7 -3 16 -2 19 1 4 3 -2 6 -13 5 -11 0 -14 -3 -6 -6z"/>
        <path d="M1275 360 c-3 -6 1 -7 9 -4 18 7 21 14 7 14 -6 0 -13 -4 -16 -10z"/>
        <path d="M1305 239 c22 -10 49 -18 60 -18 11 0 -5 8 -35 19 -69 24 -77 24 -25
        -1z"/>
        <path d="M1435 241 l40 -18 -71 -7 c-40 -4 -85 -4 -100 0 -16 4 -25 3 -21 -2
        4 -4 65 -11 135 -15 102 -6 139 -4 185 8 32 9 56 21 54 27 -5 17 -65 19 -123
        6 -43 -11 -55 -10 -82 4 -17 9 -37 16 -44 16 -7 0 5 -9 27 -19z"/>
    </g>
</svg>
