<?xml version="1.0" standalone="no"?>
<!DOCTYPE svg PUBLIC "-//W3C//DTD SVG 20010904//EN"
 "http://www.w3.org/TR/2001/REC-SVG-20010904/DTD/svg10.dtd">
<svg version="1.0" xmlns="http://www.w3.org/2000/svg"
 width="240.000000pt" height="62.000000pt" viewBox="0 0 240.000000 62.000000"
 preserveAspectRatio="xMidYMid meet">

    <g transform="translate(0.000000,62.000000) scale(0.100000,-0.100000)"
    fill="#000000" stroke="none">
        <path d="M2200 549 c-97 -50 -238 -86 -388 -98 -59 -4 -86 -10 -85 -18 2 -7 7
        -30 12 -53 l9 -40 -869 0 -869 0 0 -30 0 -30 869 0 869 0 -9 -37 c-16 -71 -18
        -69 84 -76 115 -8 270 -46 364 -92 57 -26 73 -31 73 -19 0 24 -19 56 -58 97
        -39 40 -52 46 -52 22 0 -19 3 -19 -78 4 -38 10 -110 24 -160 31 -92 13 -92 13
        -92 41 l0 29 176 0 176 0 -4 -24 c-5 -24 -4 -25 26 -11 17 8 64 24 104 36 39
        13 72 25 72 29 0 4 -189 70 -203 70 -3 0 -3 -9 0 -20 5 -19 0 -20 -171 -20
        l-176 0 0 29 c0 27 2 28 65 35 35 4 108 18 162 31 54 14 99 25 100 25 2 0 3
        -7 3 -15 0 -24 14 -18 58 27 35 35 62 91 50 103 -1 2 -28 -10 -58 -26z"/>
    </g>
</svg>
