<?xml version="1.0" standalone="no"?>
<!DOCTYPE svg PUBLIC "-//W3C//DTD SVG 20010904//EN"
 "http://www.w3.org/TR/2001/REC-SVG-20010904/DTD/svg10.dtd">
<svg version="1.0" xmlns="http://www.w3.org/2000/svg"
 width="240.000000pt" height="62.000000pt" viewBox="0 0 240.000000 62.000000"
 preserveAspectRatio="xMidYMid meet">

    <g transform="translate(0.000000,62.000000) scale(0.100000,-0.100000)"
    fill="#000000" stroke="none">
        <path d="M17 343 c-4 -3 -7 -26 -7 -50 0 -39 2 -43 24 -43 13 0 29 6 35 14 11
        13 17 12 47 -6 l34 -20 36 21 c50 30 218 31 266 1 41 -25 59 -25 91 0 22 18
        40 20 160 20 85 0 138 -4 142 -11 13 -20 54 -29 80 -17 14 6 25 15 25 20 0 4
        67 8 149 8 124 0 155 -3 180 -17 30 -17 32 -17 64 2 45 27 294 36 332 11 31
        -20 69 -21 85 -1 18 22 294 22 316 0 20 -19 58 -19 74 0 10 12 37 15 126 15
        69 0 114 4 114 10 0 6 -43 10 -109 10 -85 0 -116 4 -139 17 -28 16 -31 16 -55
        0 -36 -24 -308 -25 -327 -2 -7 8 -25 15 -40 15 -15 0 -33 -7 -40 -15 -18 -22
        -297 -22 -326 0 -25 19 -78 19 -94 0 -10 -12 -40 -15 -152 -15 -125 0 -143 2
        -177 22 l-38 22 -35 -22 c-31 -19 -49 -22 -154 -22 -102 0 -123 3 -149 20 -36
        24 -88 26 -105 5 -10 -12 -38 -15 -131 -15 -68 0 -120 4 -124 10 -9 14 -71 13
        -95 -2 -15 -10 -22 -9 -38 5 -20 18 -34 21 -45 10z"/>
    </g>
</svg>
